<svg width="128" height="128" viewBox="-64 -64 640 640" xmlns="http://www.w3.org/2000/svg">
  <defs>
    <linearGradient id="bgGradient" x1="0%" y1="0%" x2="100%" y2="100%">
      <stop offset="0%" style="stop-color:#06b6d4;stop-opacity:1" />
      <stop offset="50%" style="stop-color:#3b82f6;stop-opacity:1" />
      <stop offset="100%" style="stop-color:#8b5cf6;stop-opacity:1" />
    </linearGradient>
    <linearGradient id="shieldGradient" x1="0%" y1="0%" x2="100%" y2="100%">
      <stop offset="0%" style="stop-color:#ffffff;stop-opacity:1" />
      <stop offset="100%" style="stop-color:#e2e8f0;stop-opacity:1" />
    </linearGradient>
  </defs>

  <circle cx="64.0" cy="64.0" r="62.0" fill="url(#bgGradient)" />

  <g transform="translate(32.0, 25.6)">
    <path d="M32.0 12.8L51.2 6.4C53.76 5.12 57.6 5.12 60.16 6.4L79.36 12.8C83.2 14.08 85.76 17.92 85.76 21.76V44.8C85.76 57.6 76.8 69.12 64.0 74.24L60.16 76.8C57.6 78.08 53.76 78.08 51.2 76.8L47.36 74.24C34.56 69.12 25.6 57.6 25.6 44.8V21.76C25.6 17.92 28.16 14.08 32.0 12.8Z" fill="url(#shieldGradient)" />
    <rect x="44.8" y="35.84" width="21.76" height="19.2" rx="2.56" fill="#0f172a" />
    <path d="M48.64 35.84V30.72C48.64 26.88 52.48 23.04 56.32 23.04C60.16 23.04 64.0 26.88 64.0 30.72V35.84" stroke="#0f172a" stroke-width="1.92" fill="none" />
  </g>

  <circle cx="102.4" cy="25.6" r="2.56" fill="#ffffff" opacity="0.8" />
  <circle cx="19.2" cy="96.0" r="1.92" fill="#ffffff" opacity="0.6" />
  <circle cx="108.8" cy="108.8" r="1.28" fill="#ffffff" opacity="0.7" />

</svg>
