<svg width="72" height="72" viewBox="-64 -64 640 640" xmlns="http://www.w3.org/2000/svg">
  <defs>
    <linearGradient id="bgGradient" x1="0%" y1="0%" x2="100%" y2="100%">
      <stop offset="0%" style="stop-color:#06b6d4;stop-opacity:1" />
      <stop offset="50%" style="stop-color:#3b82f6;stop-opacity:1" />
      <stop offset="100%" style="stop-color:#8b5cf6;stop-opacity:1" />
    </linearGradient>
    <linearGradient id="shieldGradient" x1="0%" y1="0%" x2="100%" y2="100%">
      <stop offset="0%" style="stop-color:#ffffff;stop-opacity:1" />
      <stop offset="100%" style="stop-color:#e2e8f0;stop-opacity:1" />
    </linearGradient>
  </defs>

  <circle cx="36.0" cy="36.0" r="34.0" fill="url(#bgGradient)" />

  <g transform="translate(18.0, 14.4)">
    <path d="M18.0 7.2L28.8 3.6C30.24 2.88 32.4 2.88 33.839999999999996 3.6L44.64 7.2C46.800000000000004 7.92 48.24 10.080000000000002 48.24 12.24V25.2C48.24 32.4 43.199999999999996 38.88 36.0 41.76L33.839999999999996 43.199999999999996C32.4 43.92 30.24 43.92 28.8 43.199999999999996L26.64 41.76C19.44 38.88 14.4 32.4 14.4 25.2V12.24C14.4 10.080000000000002 15.84 7.92 18.0 7.2Z" fill="url(#shieldGradient)" />
    <rect x="25.2" y="20.160000000000004" width="12.24" height="10.799999999999999" rx="1.44" fill="#0f172a" />
    <path d="M27.36 20.160000000000004V17.28C27.36 15.12 29.52 12.959999999999999 31.68 12.959999999999999C33.839999999999996 12.959999999999999 36.0 15.12 36.0 17.28V20.160000000000004" stroke="#0f172a" stroke-width="1.08" fill="none" />
  </g>

  <circle cx="57.6" cy="14.4" r="1.44" fill="#ffffff" opacity="0.8" />
  <circle cx="10.799999999999999" cy="54.0" r="1.08" fill="#ffffff" opacity="0.6" />
  <circle cx="61.199999999999996" cy="61.199999999999996" r="0.72" fill="#ffffff" opacity="0.7" />

</svg>
