<svg width="96" height="96" viewBox="-64 -64 640 640" xmlns="http://www.w3.org/2000/svg">
  <defs>
    <linearGradient id="bgGradient" x1="0%" y1="0%" x2="100%" y2="100%">
      <stop offset="0%" style="stop-color:#06b6d4;stop-opacity:1" />
      <stop offset="50%" style="stop-color:#3b82f6;stop-opacity:1" />
      <stop offset="100%" style="stop-color:#8b5cf6;stop-opacity:1" />
    </linearGradient>
    <linearGradient id="shieldGradient" x1="0%" y1="0%" x2="100%" y2="100%">
      <stop offset="0%" style="stop-color:#ffffff;stop-opacity:1" />
      <stop offset="100%" style="stop-color:#e2e8f0;stop-opacity:1" />
    </linearGradient>
  </defs>

  <circle cx="48.0" cy="48.0" r="46.0" fill="url(#bgGradient)" />

  <g transform="translate(24.0, 19.200000000000003)">
    <path d="M24.0 9.600000000000001L38.400000000000006 4.800000000000001C40.32 3.84 43.2 3.84 45.12 4.800000000000001L59.519999999999996 9.600000000000001C62.400000000000006 10.56 64.32000000000001 13.440000000000001 64.32000000000001 16.32V33.599999999999994C64.32000000000001 43.2 57.599999999999994 51.84 48.0 55.67999999999999L45.12 57.599999999999994C43.2 58.56 40.32 58.56 38.400000000000006 57.599999999999994L35.519999999999996 55.67999999999999C25.92 51.84 19.200000000000003 43.2 19.200000000000003 33.599999999999994V16.32C19.200000000000003 13.440000000000001 21.12 10.56 24.0 9.600000000000001Z" fill="url(#shieldGradient)" />
    <rect x="33.599999999999994" y="26.880000000000003" width="16.32" height="14.399999999999999" rx="1.92" fill="#0f172a" />
    <path d="M36.480000000000004 26.880000000000003V23.04C36.480000000000004 20.16 39.36 17.28 42.24 17.28C45.12 17.28 48.0 20.16 48.0 23.04V26.880000000000003" stroke="#0f172a" stroke-width="1.44" fill="none" />
  </g>

  <circle cx="76.80000000000001" cy="19.200000000000003" r="1.92" fill="#ffffff" opacity="0.8" />
  <circle cx="14.399999999999999" cy="72.0" r="1.44" fill="#ffffff" opacity="0.6" />
  <circle cx="81.6" cy="81.6" r="0.96" fill="#ffffff" opacity="0.7" />

</svg>
