<svg width="152" height="152" viewBox="0 0 152 152" xmlns="http://www.w3.org/2000/svg">
  <defs>
    <linearGradient id="bgGradient" x1="0%" y1="0%" x2="100%" y2="100%">
      <stop offset="0%" style="stop-color:#06b6d4;stop-opacity:1" />
      <stop offset="50%" style="stop-color:#3b82f6;stop-opacity:1" />
      <stop offset="100%" style="stop-color:#8b5cf6;stop-opacity:1" />
    </linearGradient>
    <linearGradient id="shieldGradient" x1="0%" y1="0%" x2="100%" y2="100%">
      <stop offset="0%" style="stop-color:#ffffff;stop-opacity:1" />
      <stop offset="100%" style="stop-color:#e2e8f0;stop-opacity:1" />
    </linearGradient>
  </defs>

  <circle cx="76.0" cy="76.0" r="74.0" fill="url(#bgGradient)" />

  <g transform="translate(38.0, 30.400000000000002)">
    <path d="M38.0 15.200000000000001L60.800000000000004 7.6000000000000005C63.839999999999996 6.08 68.4 6.08 71.44 7.6000000000000005L94.24 15.200000000000001C98.8 16.72 101.84 21.28 101.84 25.840000000000003V53.199999999999996C101.84 68.4 91.2 82.08000000000001 76.0 88.16L71.44 91.2C68.4 92.72 63.839999999999996 92.72 60.800000000000004 91.2L56.24 88.16C41.040000000000006 82.08000000000001 30.400000000000002 68.4 30.400000000000002 53.199999999999996V25.840000000000003C30.400000000000002 21.28 33.44 16.72 38.0 15.200000000000001Z" fill="url(#shieldGradient)" />
    <rect x="53.199999999999996" y="42.56" width="25.840000000000003" height="22.8" rx="3.04" fill="#0f172a" />
    <path d="M57.76 42.56V36.48C57.76 31.919999999999998 62.31999999999999 27.36 66.88 27.36C71.44 27.36 76.0 31.919999999999998 76.0 36.48V42.56" stroke="#0f172a" stroke-width="2.28" fill="none" />
  </g>

  <circle cx="121.60000000000001" cy="30.400000000000002" r="3.04" fill="#ffffff" opacity="0.8" />
  <circle cx="22.8" cy="114.0" r="2.28" fill="#ffffff" opacity="0.6" />
  <circle cx="129.2" cy="129.2" r="1.52" fill="#ffffff" opacity="0.7" />

</svg>
