<svg width="192" height="192" viewBox="0 0 192 192" xmlns="http://www.w3.org/2000/svg">
  <defs>
    <linearGradient id="bgGradient" x1="0%" y1="0%" x2="100%" y2="100%">
      <stop offset="0%" style="stop-color:#06b6d4;stop-opacity:1" />
      <stop offset="50%" style="stop-color:#3b82f6;stop-opacity:1" />
      <stop offset="100%" style="stop-color:#8b5cf6;stop-opacity:1" />
    </linearGradient>
    <linearGradient id="shieldGradient" x1="0%" y1="0%" x2="100%" y2="100%">
      <stop offset="0%" style="stop-color:#ffffff;stop-opacity:1" />
      <stop offset="100%" style="stop-color:#e2e8f0;stop-opacity:1" />
    </linearGradient>
  </defs>
  
  <!-- Background circle -->
  <circle cx="96" cy="96" r="94" fill="url(#bgGradient)" />
  
  <!-- Shield icon -->
  <g transform="translate(48, 38.4)">
    <path d="M48 19.2L76.8 9.6C78.72 8.96 80.28 8.96 82.2 9.6L111 19.2C114 20.48 116 23.68 116 27.2V67.2C116 86.4 105.6 103.68 88 111.36L82.2 113.28C80.28 113.92 78.72 113.92 76.8 113.28L71 111.36C53.4 103.68 43 86.4 43 67.2V27.2C43 23.68 45 20.48 48 19.2Z" fill="url(#shieldGradient)" />
    
    <!-- Lock symbol inside shield -->
    <rect x="67.2" y="53.76" width="32.64" height="28.8" rx="3.84" fill="#0f172a" />
    <path d="M72.96 53.76V46.08C72.96 40.32 77.34 35.84 83.2 35.84C89.06 35.84 93.44 40.32 93.44 46.08V53.76" stroke="#0f172a" stroke-width="2.88" fill="none" />
  </g>
  
  <!-- Sparkle effects -->
  <circle cx="153.6" cy="38.4" r="3.84" fill="#ffffff" opacity="0.8" />
  <circle cx="28.8" cy="144" r="2.88" fill="#ffffff" opacity="0.6" />
  <circle cx="163.2" cy="163.2" r="1.92" fill="#ffffff" opacity="0.7" />
</svg>