<svg width="96" height="96" viewBox="0 0 96 96" xmlns="http://www.w3.org/2000/svg">
  <defs>
    <linearGradient id="bgGradient" x1="0%" y1="0%" x2="100%" y2="100%">
      <stop offset="0%" style="stop-color:#06b6d4;stop-opacity:1" />
      <stop offset="50%" style="stop-color:#3b82f6;stop-opacity:1" />
      <stop offset="100%" style="stop-color:#8b5cf6;stop-opacity:1" />
    </linearGradient>
    <linearGradient id="shieldGradient" x1="0%" y1="0%" x2="100%" y2="100%">
      <stop offset="0%" style="stop-color:#ffffff;stop-opacity:1" />
      <stop offset="100%" style="stop-color:#e2e8f0;stop-opacity:1" />
    </linearGradient>
  </defs>
  
  <!-- Background circle -->
  <circle cx="48" cy="48" r="46" fill="url(#bgGradient)" />
  
  <!-- Shield icon -->
  <g transform="translate(24, 19.2)">
    <path d="M24 9.6L38.4 4.8C39.36 4.48 40.64 4.48 41.6 4.8L56 9.6C57.6 10.24 58.67 11.84 58.67 13.6V33.6C58.67 43.2 52.8 51.84 44 55.68L41.6 56.64C40.64 56.96 39.36 56.96 38.4 56.64L36 55.68C27.2 51.84 21.33 43.2 21.33 33.6V13.6C21.33 11.84 22.4 10.24 24 9.6Z" fill="url(#shieldGradient)" />
    
    <!-- Lock symbol inside shield -->
    <rect x="33.6" y="26.88" width="16.32" height="14.4" rx="1.92" fill="#0f172a" />
    <path d="M36.48 26.88V23.04C36.48 20.16 38.72 17.92 41.6 17.92C44.48 17.92 46.72 20.16 46.72 23.04V26.88" stroke="#0f172a" stroke-width="1.44" fill="none" />
  </g>
  
  <!-- Sparkle effects -->
  <circle cx="76.8" cy="19.2" r="1.92" fill="#ffffff" opacity="0.8" />
  <circle cx="14.4" cy="72" r="1.44" fill="#ffffff" opacity="0.6" />
  <circle cx="81.6" cy="81.6" r="0.96" fill="#ffffff" opacity="0.7" />
</svg>