<svg width="512" height="512" viewBox="-64 -64 640 640" xmlns="http://www.w3.org/2000/svg">
  <defs>
    <linearGradient id="bgGradient" x1="0%" y1="0%" x2="100%" y2="100%">
      <stop offset="0%" style="stop-color:#06b6d4;stop-opacity:1" />
      <stop offset="50%" style="stop-color:#3b82f6;stop-opacity:1" />
      <stop offset="100%" style="stop-color:#8b5cf6;stop-opacity:1" />
    </linearGradient>
    <linearGradient id="shieldGradient" x1="0%" y1="0%" x2="100%" y2="100%">
      <stop offset="0%" style="stop-color:#ffffff;stop-opacity:1" />
      <stop offset="100%" style="stop-color:#e2e8f0;stop-opacity:1" />
    </linearGradient>
  </defs>

  <circle cx="256.0" cy="256.0" r="254.0" fill="url(#bgGradient)" />

  <g transform="translate(128.0, 102.4)">
    <path d="M128.0 51.2L204.8 25.6C215.04 20.48 230.4 20.48 240.64 25.6L317.44 51.2C332.8 56.32 343.04 71.68 343.04 87.04V179.2C343.04 230.4 307.2 276.48 256.0 296.96L240.64 307.2C230.4 312.32 215.04 312.32 204.8 307.2L189.44 296.96C138.24 276.48 102.4 230.4 102.4 179.2V87.04C102.4 71.68 112.64 56.32 128.0 51.2Z" fill="url(#shieldGradient)" />
    <rect x="179.2" y="143.36" width="87.04" height="76.8" rx="10.24" fill="#0f172a" />
    <path d="M194.56 143.36V122.88C194.56 107.52 209.92 92.16 225.28 92.16C240.64 92.16 256.0 107.52 256.0 122.88V143.36" stroke="#0f172a" stroke-width="7.68" fill="none" />
  </g>

  <circle cx="409.6" cy="102.4" r="10.24" fill="#ffffff" opacity="0.8" />
  <circle cx="76.8" cy="384.0" r="7.68" fill="#ffffff" opacity="0.6" />
  <circle cx="435.2" cy="435.2" r="5.12" fill="#ffffff" opacity="0.7" />

</svg>
