<svg width="180" height="180" viewBox="-64 -64 640 640" xmlns="http://www.w3.org/2000/svg">
  <defs>
    <linearGradient id="bgGradient" x1="0%" y1="0%" x2="100%" y2="100%">
      <stop offset="0%" style="stop-color:#06b6d4;stop-opacity:1" />
      <stop offset="50%" style="stop-color:#3b82f6;stop-opacity:1" />
      <stop offset="100%" style="stop-color:#8b5cf6;stop-opacity:1" />
    </linearGradient>
    <linearGradient id="shieldGradient" x1="0%" y1="0%" x2="100%" y2="100%">
      <stop offset="0%" style="stop-color:#ffffff;stop-opacity:1" />
      <stop offset="100%" style="stop-color:#e2e8f0;stop-opacity:1" />
    </linearGradient>
  </defs>

  <circle cx="90.0" cy="90.0" r="88.0" fill="url(#bgGradient)" />

  <g transform="translate(45.0, 36.0)">
    <path d="M45.0 18.0L72.0 9.0C75.6 7.2 81.0 7.2 84.6 9.0L111.6 18.0C117.0 19.8 120.60000000000001 25.200000000000003 120.60000000000001 30.6V62.99999999999999C120.60000000000001 81.0 108.0 97.2 90.0 104.39999999999999L84.6 108.0C81.0 109.8 75.6 109.8 72.0 108.0L66.6 104.39999999999999C48.6 97.2 36.0 81.0 36.0 62.99999999999999V30.6C36.0 25.200000000000003 39.6 19.8 45.0 18.0Z" fill="url(#shieldGradient)" />
    <rect x="62.99999999999999" y="50.400000000000006" width="30.6" height="27.0" rx="3.6" fill="#0f172a" />
    <path d="M68.4 50.400000000000006V43.199999999999996C68.4 37.8 73.8 32.4 79.2 32.4C84.6 32.4 90.0 37.8 90.0 43.199999999999996V50.400000000000006" stroke="#0f172a" stroke-width="2.6999999999999997" fill="none" />
  </g>

  <circle cx="144.0" cy="36.0" r="3.6" fill="#ffffff" opacity="0.8" />
  <circle cx="27.0" cy="135.0" r="2.6999999999999997" fill="#ffffff" opacity="0.6" />
  <circle cx="153.0" cy="153.0" r="1.8" fill="#ffffff" opacity="0.7" />

</svg>
