<svg width="384" height="384" viewBox="-64 -64 640 640" xmlns="http://www.w3.org/2000/svg">
  <defs>
    <linearGradient id="bgGradient" x1="0%" y1="0%" x2="100%" y2="100%">
      <stop offset="0%" style="stop-color:#06b6d4;stop-opacity:1" />
      <stop offset="50%" style="stop-color:#3b82f6;stop-opacity:1" />
      <stop offset="100%" style="stop-color:#8b5cf6;stop-opacity:1" />
    </linearGradient>
    <linearGradient id="shieldGradient" x1="0%" y1="0%" x2="100%" y2="100%">
      <stop offset="0%" style="stop-color:#ffffff;stop-opacity:1" />
      <stop offset="100%" style="stop-color:#e2e8f0;stop-opacity:1" />
    </linearGradient>
  </defs>

  <circle cx="192.0" cy="192.0" r="190.0" fill="url(#bgGradient)" />

  <g transform="translate(96.0, 76.80000000000001)">
    <path d="M96.0 38.400000000000006L153.60000000000002 19.200000000000003C161.28 15.36 172.8 15.36 180.48 19.200000000000003L238.07999999999998 38.400000000000006C249.60000000000002 42.24 257.28000000000003 53.760000000000005 257.28000000000003 65.28V134.39999999999998C257.28000000000003 172.8 230.39999999999998 207.36 192.0 222.71999999999997L180.48 230.39999999999998C172.8 234.24 161.28 234.24 153.60000000000002 230.39999999999998L142.07999999999998 222.71999999999997C103.68 207.36 76.80000000000001 172.8 76.80000000000001 134.39999999999998V65.28C76.80000000000001 53.760000000000005 84.48 42.24 96.0 38.400000000000006Z" fill="url(#shieldGradient)" />
    <rect x="134.39999999999998" y="107.52000000000001" width="65.28" height="57.599999999999994" rx="7.68" fill="#0f172a" />
    <path d="M145.92000000000002 107.52000000000001V92.16C145.92000000000002 80.64 157.44 69.12 168.96 69.12C180.48 69.12 192.0 80.64 192.0 92.16V107.52000000000001" stroke="#0f172a" stroke-width="5.76" fill="none" />
  </g>

  <circle cx="307.20000000000005" cy="76.80000000000001" r="7.68" fill="#ffffff" opacity="0.8" />
  <circle cx="57.599999999999994" cy="288.0" r="5.76" fill="#ffffff" opacity="0.6" />
  <circle cx="326.4" cy="326.4" r="3.84" fill="#ffffff" opacity="0.7" />

</svg>
