<svg width="192" height="192" viewBox="-64 -64 640 640" xmlns="http://www.w3.org/2000/svg">
  <defs>
    <linearGradient id="bgGradient" x1="0%" y1="0%" x2="100%" y2="100%">
      <stop offset="0%" style="stop-color:#06b6d4;stop-opacity:1" />
      <stop offset="50%" style="stop-color:#3b82f6;stop-opacity:1" />
      <stop offset="100%" style="stop-color:#8b5cf6;stop-opacity:1" />
    </linearGradient>
    <linearGradient id="shieldGradient" x1="0%" y1="0%" x2="100%" y2="100%">
      <stop offset="0%" style="stop-color:#ffffff;stop-opacity:1" />
      <stop offset="100%" style="stop-color:#e2e8f0;stop-opacity:1" />
    </linearGradient>
  </defs>

  <circle cx="96.0" cy="96.0" r="94.0" fill="url(#bgGradient)" />

  <g transform="translate(48.0, 38.400000000000006)">
    <path d="M48.0 19.200000000000003L76.80000000000001 9.600000000000001C80.64 7.68 86.4 7.68 90.24 9.600000000000001L119.03999999999999 19.200000000000003C124.80000000000001 21.12 128.64000000000001 26.880000000000003 128.64000000000001 32.64V67.19999999999999C128.64000000000001 86.4 115.19999999999999 103.68 96.0 111.35999999999999L90.24 115.19999999999999C86.4 117.12 80.64 117.12 76.80000000000001 115.19999999999999L71.03999999999999 111.35999999999999C51.84 103.68 38.400000000000006 86.4 38.400000000000006 67.19999999999999V32.64C38.400000000000006 26.880000000000003 42.24 21.12 48.0 19.200000000000003Z" fill="url(#shieldGradient)" />
    <rect x="67.19999999999999" y="53.760000000000005" width="32.64" height="28.799999999999997" rx="3.84" fill="#0f172a" />
    <path d="M72.96000000000001 53.760000000000005V46.08C72.96000000000001 40.32 78.72 34.56 84.48 34.56C90.24 34.56 96.0 40.32 96.0 46.08V53.760000000000005" stroke="#0f172a" stroke-width="2.88" fill="none" />
  </g>

  <circle cx="153.60000000000002" cy="38.400000000000006" r="3.84" fill="#ffffff" opacity="0.8" />
  <circle cx="28.799999999999997" cy="144.0" r="2.88" fill="#ffffff" opacity="0.6" />
  <circle cx="163.2" cy="163.2" r="1.92" fill="#ffffff" opacity="0.7" />

</svg>
