<svg width="120" height="120" viewBox="0 0 120 120" xmlns="http://www.w3.org/2000/svg">
  <defs>
    <linearGradient id="bgGradient" x1="0%" y1="0%" x2="100%" y2="100%">
      <stop offset="0%" style="stop-color:#06b6d4;stop-opacity:1" />
      <stop offset="50%" style="stop-color:#3b82f6;stop-opacity:1" />
      <stop offset="100%" style="stop-color:#8b5cf6;stop-opacity:1" />
    </linearGradient>
    <linearGradient id="shieldGradient" x1="0%" y1="0%" x2="100%" y2="100%">
      <stop offset="0%" style="stop-color:#ffffff;stop-opacity:1" />
      <stop offset="100%" style="stop-color:#e2e8f0;stop-opacity:1" />
    </linearGradient>
  </defs>

  <circle cx="60.0" cy="60.0" r="58.0" fill="url(#bgGradient)" />

  <g transform="translate(30.0, 24.0)">
    <path d="M30.0 12.0L48.0 6.0C50.4 4.8 54.0 4.8 56.4 6.0L74.4 12.0C78.0 13.2 80.4 16.8 80.4 20.400000000000002V42.0C80.4 54.0 72.0 64.80000000000001 60.0 69.6L56.4 72.0C54.0 73.2 50.4 73.2 48.0 72.0L44.4 69.6C32.400000000000006 64.80000000000001 24.0 54.0 24.0 42.0V20.400000000000002C24.0 16.8 26.4 13.2 30.0 12.0Z" fill="url(#shieldGradient)" />
    <rect x="42.0" y="33.6" width="20.400000000000002" height="18.0" rx="2.4" fill="#0f172a" />
    <path d="M45.6 33.6V28.799999999999997C45.6 25.2 49.199999999999996 21.599999999999998 52.8 21.599999999999998C56.4 21.599999999999998 60.0 25.2 60.0 28.799999999999997V33.6" stroke="#0f172a" stroke-width="1.7999999999999998" fill="none" />
  </g>

  <circle cx="96.0" cy="24.0" r="2.4" fill="#ffffff" opacity="0.8" />
  <circle cx="18.0" cy="90.0" r="1.7999999999999998" fill="#ffffff" opacity="0.6" />
  <circle cx="102.0" cy="102.0" r="1.2" fill="#ffffff" opacity="0.7" />

</svg>
