<svg width="144" height="144" viewBox="0 0 144 144" xmlns="http://www.w3.org/2000/svg">
  <defs>
    <linearGradient id="bgGradient" x1="0%" y1="0%" x2="100%" y2="100%">
      <stop offset="0%" style="stop-color:#06b6d4;stop-opacity:1" />
      <stop offset="50%" style="stop-color:#3b82f6;stop-opacity:1" />
      <stop offset="100%" style="stop-color:#8b5cf6;stop-opacity:1" />
    </linearGradient>
    <linearGradient id="shieldGradient" x1="0%" y1="0%" x2="100%" y2="100%">
      <stop offset="0%" style="stop-color:#ffffff;stop-opacity:1" />
      <stop offset="100%" style="stop-color:#e2e8f0;stop-opacity:1" />
    </linearGradient>
  </defs>

  <circle cx="72.0" cy="72.0" r="70.0" fill="url(#bgGradient)" />

  <g transform="translate(36.0, 28.8)">
    <path d="M36.0 14.4L57.6 7.2C60.48 5.76 64.8 5.76 67.67999999999999 7.2L89.28 14.4C93.60000000000001 15.84 96.48 20.160000000000004 96.48 24.48V50.4C96.48 64.8 86.39999999999999 77.76 72.0 83.52L67.67999999999999 86.39999999999999C64.8 87.84 60.48 87.84 57.6 86.39999999999999L53.28 83.52C38.88 77.76 28.8 64.8 28.8 50.4V24.48C28.8 20.160000000000004 31.68 15.84 36.0 14.4Z" fill="url(#shieldGradient)" />
    <rect x="50.4" y="40.32000000000001" width="24.48" height="21.599999999999998" rx="2.88" fill="#0f172a" />
    <path d="M54.72 40.32000000000001V34.56C54.72 30.24 59.04 25.919999999999998 63.36 25.919999999999998C67.67999999999999 25.919999999999998 72.0 30.24 72.0 34.56V40.32000000000001" stroke="#0f172a" stroke-width="2.16" fill="none" />
  </g>

  <circle cx="115.2" cy="28.8" r="2.88" fill="#ffffff" opacity="0.8" />
  <circle cx="21.599999999999998" cy="108.0" r="2.16" fill="#ffffff" opacity="0.6" />
  <circle cx="122.39999999999999" cy="122.39999999999999" r="1.44" fill="#ffffff" opacity="0.7" />

</svg>
